# xmcd
#
# Track frame offsets:
# 150
# 13312
# 34865
# 44960
# 58558
# 73366
# 87103
# 112738
# 126427
# 144323
# 160269
# 178303
# 194318
# 210201
# 229170
# 247296
# 265520
# 287401
# 303792
# 316080
#
# Disc length: 4396 seconds
#
#
# Revision: 0
# Processed by: cddbd v1.5.2PL0 Copyright (c) Steve Scherf et al.
# Submitted via: FreeRIP 2.951 
#
DISCID=21112a14
DTITLE=VARIOS - O MELHOR DA MPB 2000
DYEAR=2000
DGENRE=MPB
TTITLE0=TOCANDO EM FRENTE
TTITLE1=NA SOMBRA DE UM VULCAO
TTITLE2=TERRAL
TTITLE3=JARDIM DA FANTASIA
TTITLE4=NOS DOIS
TTITLE5=CANTEIROS
TTITLE6=PRA NAO DIZER QUE NAO FALEI DAS FLORES
TTITLE7=MURALHAS DA ADOLESCENCIA
TTITLE8=AI QUE SAUDADE DE AMELIA
TTITLE9=RUA RAMALHETE
TTITLE10=FRISSON
TTITLE11=VIDA CIGANA
TTITLE12=GOSTOSO DEMAIS
TTITLE13=COMO E GRANDE MEU AMOR POR VOCE
TTITLE14=CASINHA BRANCA
TTITLE15=COCO VERDE
TTITLE16=CORSARIO
TTITLE17=ANDANÇAS
TTITLE18=PINGOS DE AMOR
TTITLE19=ESPANHOLA
EXTD=
EXTT0=
EXTT1=
EXTT2=
EXTT3=
EXTT4=
EXTT5=
EXTT6=
EXTT7=
EXTT8=
EXTT9=
EXTT10=
EXTT11=
EXTT12=
EXTT13=
EXTT14=
EXTT15=
EXTT16=
EXTT17=
EXTT18=
EXTT19=
PLAYORDER=
